<svg width="16" height="16" viewBox="0 0 16 16" fill="none" xmlns="http://www.w3.org/2000/svg">
<path d="M12.6669 7.33332H5.22028L8.47361 4.07998C8.73361 3.81998 8.73361 3.39332 8.47361 3.13332C8.41193 3.07151 8.33867 3.02248 8.25803 2.98903C8.17738 2.95557 8.09092 2.93835 8.00361 2.93835C7.9163 2.93835 7.82984 2.95557 7.74919 2.98903C7.66854 3.02248 7.59528 3.07151 7.53361 3.13332L3.14028 7.52665C3.07847 7.58833 3.02944 7.66159 2.99599 7.74223C2.96253 7.82288 2.94531 7.90934 2.94531 7.99665C2.94531 8.08396 2.96253 8.17042 2.99599 8.25107C3.02944 8.33172 3.07847 8.40497 3.14028 8.46665L7.53361 12.86C7.59533 12.9217 7.6686 12.9707 7.74925 13.0041C7.82989 13.0375 7.91632 13.0547 8.00361 13.0547C8.0909 13.0547 8.17733 13.0375 8.25797 13.0041C8.33861 12.9707 8.41189 12.9217 8.47361 12.86C8.53533 12.7983 8.58429 12.725 8.61769 12.6443C8.6511 12.5637 8.66829 12.4773 8.66829 12.39C8.66829 12.3027 8.6511 12.2163 8.61769 12.1356C8.58429 12.055 8.53533 11.9817 8.47361 11.92L5.22028 8.66665H12.6669C13.0336 8.66665 13.3336 8.36665 13.3336 7.99998C13.3336 7.63332 13.0336 7.33332 12.6669 7.33332Z" fill="#414549"/>
</svg>
