<svg width="16" height="17" viewBox="0 0 16 17" fill="none" xmlns="http://www.w3.org/2000/svg">
<g clip-path="url(#clip0_3524_6865)">
<path fill-rule="evenodd" clip-rule="evenodd" d="M3.33312 6.49992C3.33312 5.26224 3.82479 4.07526 4.69996 3.20009C5.57513 2.32492 6.76211 1.83325 7.99979 1.83325C9.23747 1.83325 10.4245 2.32492 11.2996 3.20009C12.1748 4.07526 12.6665 5.26224 12.6665 6.49992V9.00925L13.8811 11.4386C13.937 11.5504 13.9634 11.6746 13.9578 11.7995C13.9522 11.9244 13.9148 12.0458 13.849 12.1521C13.7833 12.2585 13.6915 12.3463 13.5823 12.4071C13.4731 12.468 13.3501 12.4999 13.2251 12.4999H10.5825C10.4342 13.0721 10.1001 13.5788 9.63263 13.9405C9.16519 14.3023 8.59086 14.4985 7.99979 14.4985C7.40873 14.4985 6.83439 14.3023 6.36695 13.9405C5.8995 13.5788 5.56542 13.0721 5.41712 12.4999H2.77446C2.64944 12.4999 2.5265 12.468 2.4173 12.4071C2.30811 12.3463 2.21628 12.2585 2.15055 12.1521C2.08483 12.0458 2.04737 11.9244 2.04176 11.7995C2.03614 11.6746 2.06254 11.5504 2.11846 11.4386L3.33312 9.00925V6.49992ZM6.84512 12.4999C6.96215 12.7026 7.13047 12.8709 7.33315 12.9879C7.53584 13.1049 7.76575 13.1665 7.99979 13.1665C8.23383 13.1665 8.46374 13.1049 8.66643 12.9879C8.86911 12.8709 9.03743 12.7026 9.15446 12.4999H6.84512ZM7.99979 3.16659C7.11574 3.16659 6.26789 3.51777 5.64277 4.1429C5.01765 4.76802 4.66646 5.61586 4.66646 6.49992V9.00925C4.66644 9.21614 4.61828 9.42019 4.52579 9.60525L3.74579 11.1666H12.2545L11.4745 9.60525C11.3818 9.42024 11.3334 9.21619 11.3331 9.00925V6.49992C11.3331 5.61586 10.9819 4.76802 10.3568 4.1429C9.73169 3.51777 8.88385 3.16659 7.99979 3.16659Z" fill="#414549"/>
</g>
<defs>
<clipPath id="clip0_3524_6865">
<rect width="16" height="16" fill="white" transform="translate(0 0.5)"/>
</clipPath>
</defs>
</svg>
