<svg width="16" height="16" viewBox="0 0 16 16" fill="none" xmlns="http://www.w3.org/2000/svg">
<circle cx="8" cy="8" r="8" fill="#319868"/>
<path d="M6.9994 9.39003L5.84273 8.23336C5.78041 8.17103 5.69587 8.13602 5.60773 8.13602C5.51959 8.13602 5.43506 8.17103 5.37273 8.23336C5.3104 8.29568 5.27539 8.38022 5.27539 8.46836C5.27539 8.512 5.28399 8.55522 5.30069 8.59554C5.31739 8.63586 5.34187 8.6725 5.37273 8.70336L6.76606 10.0967C6.89606 10.2267 7.10606 10.2267 7.23606 10.0967L10.7627 6.57003C10.8251 6.5077 10.8601 6.42317 10.8601 6.33503C10.8601 6.24688 10.8251 6.16235 10.7627 6.10003C10.7004 6.0377 10.6159 6.00269 10.5277 6.00269C10.4396 6.00269 10.3551 6.0377 10.2927 6.10003L6.9994 9.39003Z" fill="white"/>
</svg>
