<svg width="24" height="25" viewBox="0 0 24 25" fill="none" xmlns="http://www.w3.org/2000/svg">
<path fill-rule="evenodd" clip-rule="evenodd" d="M12.7066 2.79303C12.5191 2.60556 12.2648 2.50024 11.9996 2.50024C11.7344 2.50024 11.4801 2.60556 11.2926 2.79303L4.29259 9.79303L2.29259 11.793C2.19708 11.8853 2.1209 11.9956 2.06849 12.1176C2.01608 12.2396 1.9885 12.3709 1.98734 12.5036C1.98619 12.6364 2.01149 12.7681 2.06177 12.891C2.11205 13.0139 2.18631 13.1255 2.2802 13.2194C2.37409 13.3133 2.48574 13.3876 2.60864 13.4379C2.73154 13.4881 2.86321 13.5134 2.99599 13.5123C3.12877 13.5111 3.25999 13.4835 3.382 13.4311C3.504 13.3787 3.61435 13.3025 3.70659 13.207L3.99959 12.914V19.5C3.99959 20.2957 4.31566 21.0587 4.87827 21.6214C5.44088 22.184 6.20394 22.5 6.99959 22.5H16.9996C17.7952 22.5 18.5583 22.184 19.1209 21.6214C19.6835 21.0587 19.9996 20.2957 19.9996 19.5V12.914L20.2926 13.207C20.4812 13.3892 20.7338 13.49 20.996 13.4877C21.2582 13.4854 21.509 13.3803 21.6944 13.1948C21.8798 13.0094 21.985 12.7586 21.9873 12.4964C21.9895 12.2342 21.8888 11.9816 21.7066 11.793L12.7066 2.79303Z" fill="#2B3FA8"/>
</svg>
