<svg width="24" height="25" viewBox="0 0 24 25" fill="none" xmlns="http://www.w3.org/2000/svg">
<path d="M19.9996 10.5C19.9996 10.2348 19.8942 9.98046 19.7067 9.79292C19.5192 9.60539 19.2648 9.50003 18.9996 9.50003C18.7344 9.50003 18.48 9.60539 18.2925 9.79292C18.1049 9.98046 17.9996 10.2348 17.9996 10.5H19.9996ZM5.99959 10.5C5.99959 10.2348 5.89424 9.98046 5.7067 9.79292C5.51916 9.60539 5.26481 9.50003 4.99959 9.50003C4.73438 9.50003 4.48002 9.60539 4.29249 9.79292C4.10495 9.98046 3.99959 10.2348 3.99959 10.5H5.99959ZM20.2926 13.207C20.4812 13.3892 20.7338 13.49 20.996 13.4877C21.2582 13.4854 21.509 13.3803 21.6944 13.1948C21.8798 13.0094 21.985 12.7586 21.9873 12.4964C21.9895 12.2342 21.8888 11.9816 21.7066 11.793L20.2926 13.207ZM11.9996 3.50003L12.7066 2.79303C12.5191 2.60556 12.2648 2.50024 11.9996 2.50024C11.7344 2.50024 11.4801 2.60556 11.2926 2.79303L11.9996 3.50003ZM2.29259 11.793C2.19708 11.8853 2.1209 11.9956 2.06849 12.1176C2.01608 12.2396 1.9885 12.3709 1.98734 12.5036C1.98619 12.6364 2.01149 12.7681 2.06177 12.891C2.11205 13.0139 2.18631 13.1255 2.2802 13.2194C2.37409 13.3133 2.48574 13.3876 2.60864 13.4379C2.73154 13.4881 2.86321 13.5134 2.99599 13.5123C3.12877 13.5111 3.25999 13.4835 3.382 13.4311C3.504 13.3787 3.61435 13.3025 3.70659 13.207L2.29259 11.793ZM6.99959 22.5H16.9996V20.5H6.99959V22.5ZM19.9996 19.5V10.5H17.9996V19.5H19.9996ZM5.99959 19.5V10.5H3.99959V19.5H5.99959ZM21.7066 11.793L12.7066 2.79303L11.2926 4.20703L20.2926 13.207L21.7066 11.793ZM11.2926 2.79303L2.29259 11.793L3.70659 13.207L12.7066 4.20703L11.2926 2.79303ZM16.9996 22.5C17.7952 22.5 18.5583 22.184 19.1209 21.6214C19.6835 21.0587 19.9996 20.2957 19.9996 19.5H17.9996C17.9996 19.7652 17.8942 20.0196 17.7067 20.2071C17.5192 20.3947 17.2648 20.5 16.9996 20.5V22.5ZM6.99959 20.5C6.73438 20.5 6.48002 20.3947 6.29249 20.2071C6.10495 20.0196 5.99959 19.7652 5.99959 19.5H3.99959C3.99959 20.2957 4.31566 21.0587 4.87827 21.6214C5.44088 22.184 6.20394 22.5 6.99959 22.5V20.5Z" fill="#808A90"/>
</svg>
