<svg width="24" height="25" viewBox="0 0 24 25" fill="none" xmlns="http://www.w3.org/2000/svg">
<path fill-rule="evenodd" clip-rule="evenodd" d="M3.464 3.964C2 5.43 2 7.786 2 12.5C2 17.214 2 19.571 3.464 21.035C4.93 22.5 7.286 22.5 12 22.5C16.714 22.5 19.071 22.5 20.535 21.035C22 19.572 22 17.214 22 12.5C22 7.786 22 5.429 20.535 3.964C19.072 2.5 16.714 2.5 12 2.5C7.286 2.5 4.929 2.5 3.464 3.964ZM13.75 10.5C13.75 10.914 14.086 11.25 14.5 11.25H15.19L13.177 13.263C13.1538 13.2863 13.1262 13.3048 13.0958 13.3174C13.0654 13.33 13.0329 13.3364 13 13.3364C12.9671 13.3364 12.9346 13.33 12.9042 13.3174C12.8738 13.3048 12.8462 13.2863 12.823 13.263L11.237 11.677C10.9088 11.3491 10.4639 11.1649 10 11.1649C9.53609 11.1649 9.09115 11.3491 8.763 11.677L6.47 13.97C6.39631 14.0387 6.33721 14.1215 6.29622 14.2135C6.25523 14.3055 6.23319 14.4048 6.23141 14.5055C6.22963 14.6062 6.24816 14.7062 6.28588 14.7996C6.3236 14.893 6.37974 14.9778 6.45096 15.049C6.52218 15.1203 6.60701 15.1764 6.7004 15.2141C6.79379 15.2518 6.89382 15.2704 6.99452 15.2686C7.09523 15.2668 7.19454 15.2448 7.28654 15.2038C7.37854 15.1628 7.46134 15.1037 7.53 15.03L9.823 12.737C9.84622 12.7137 9.87381 12.6952 9.90418 12.6826C9.93456 12.67 9.96712 12.6636 10 12.6636C10.0329 12.6636 10.0654 12.67 10.0958 12.6826C10.1262 12.6952 10.1538 12.7137 10.177 12.737L11.763 14.323C12.0912 14.6509 12.5361 14.8351 13 14.8351C13.4639 14.8351 13.9088 14.6509 14.237 14.323L16.25 12.311V13C16.25 13.1989 16.329 13.3897 16.4697 13.5303C16.6103 13.671 16.8011 13.75 17 13.75C17.1989 13.75 17.3897 13.671 17.5303 13.5303C17.671 13.3897 17.75 13.1989 17.75 13V10.5C17.75 10.3011 17.671 10.1103 17.5303 9.96967C17.3897 9.82902 17.1989 9.75 17 9.75H14.5C14.3011 9.75 14.1103 9.82902 13.9697 9.96967C13.829 10.1103 13.75 10.3011 13.75 10.5Z" fill="#2B3FA8"/>
</svg>
