<svg width="24" height="25" viewBox="0 0 24 25" fill="none" xmlns="http://www.w3.org/2000/svg">
<path d="M2 12.5C2 7.786 2 5.429 3.464 3.964C4.93 2.5 7.286 2.5 12 2.5C16.714 2.5 19.071 2.5 20.535 3.964C22 5.43 22 7.786 22 12.5C22 17.214 22 19.571 20.535 21.035C19.072 22.5 16.714 22.5 12 22.5C7.286 22.5 4.929 22.5 3.464 21.035C2 19.572 2 17.214 2 12.5Z" stroke="#808A90" stroke-width="1.8"/>
<path d="M7 14.5L9.293 12.207C9.48053 12.0195 9.73484 11.9142 10 11.9142C10.2652 11.9142 10.5195 12.0195 10.707 12.207L12.293 13.793C12.4805 13.9805 12.7348 14.0858 13 14.0858C13.2652 14.0858 13.5195 13.9805 13.707 13.793L17 10.5M17 10.5V13M17 10.5H14.5" stroke="#808A90" stroke-width="1.8" stroke-linecap="round" stroke-linejoin="round"/>
</svg>
