<svg width="82" height="82" viewBox="0 0 82 82" fill="none" xmlns="http://www.w3.org/2000/svg">
<g filter="url(#filter0_d_3621_7287)">
<path d="M53.2483 31.3681L53.204 31.7034L53.4988 31.8693C55.3174 32.893 56.5 34.8403 56.5 37C56.5 39.1597 55.3174 41.107 53.4988 42.1307L53.204 42.2966L53.2483 42.6319C53.2824 42.8898 53.3 43.1463 53.3 43.4C53.3 46.9071 50.1345 49.7167 46.6327 49.2484L46.2966 49.2035L46.1305 49.499C45.1085 51.3174 43.1614 52.5 41 52.5C38.8386 52.5 36.8915 51.3174 35.8695 49.499L35.7034 49.2036L35.3675 49.2484C31.8579 49.7167 28.7002 46.9076 28.7 43.4003C28.7004 43.1436 28.7176 42.8871 28.7516 42.6326L28.7964 42.2968L28.5012 42.1307C26.6826 41.107 25.5 39.1597 25.5 37C25.5 34.8403 26.6826 32.893 28.5012 31.8693L28.796 31.7034L28.7517 31.3681C28.7176 31.1102 28.7 30.8537 28.7 30.6C28.7 27.0915 31.8585 24.276 35.3664 24.7515L35.703 24.7971L35.8695 24.501C36.8915 22.6826 38.8386 21.5 41 21.5C43.1614 21.5 45.1085 22.6826 46.1305 24.501L46.297 24.7972L46.6337 24.7515C50.1338 24.276 53.3 27.0918 53.3 30.6C53.3 30.8537 53.2824 31.1102 53.2483 31.3681Z" fill="url(#paint0_linear_3621_7287)" stroke="#ABB1B5"/>
<path d="M37.924 41V33.176H40.744C41.296 33.176 41.8 33.252 42.256 33.404C42.712 33.548 43.076 33.796 43.348 34.148C43.62 34.5 43.756 34.988 43.756 35.612C43.756 36.188 43.628 36.664 43.372 37.04C43.124 37.408 42.788 37.684 42.364 37.868L44.14 41H42.16L40.66 38.18H39.688V41H37.924ZM39.688 36.776H40.6C41.064 36.776 41.416 36.68 41.656 36.488C41.904 36.288 42.028 35.996 42.028 35.612C42.028 35.228 41.904 34.96 41.656 34.808C41.416 34.656 41.064 34.58 40.6 34.58H39.688V36.776Z" fill="#414549"/>
</g>
<defs>
<filter id="filter0_d_3621_7287" x="0" y="0" width="82" height="82" filterUnits="userSpaceOnUse" color-interpolation-filters="sRGB">
<feFlood flood-opacity="0" result="BackgroundImageFix"/>
<feColorMatrix in="SourceAlpha" type="matrix" values="0 0 0 0 0 0 0 0 0 0 0 0 0 0 0 0 0 0 127 0" result="hardAlpha"/>
<feOffset dy="4"/>
<feGaussianBlur stdDeviation="12.5"/>
<feComposite in2="hardAlpha" operator="out"/>
<feColorMatrix type="matrix" values="0 0 0 0 0.223529 0 0 0 0 0.223529 0 0 0 0 0.223529 0 0 0 0.2 0"/>
<feBlend mode="normal" in2="BackgroundImageFix" result="effect1_dropShadow_3621_7287"/>
<feBlend mode="normal" in="SourceGraphic" in2="effect1_dropShadow_3621_7287" result="shape"/>
</filter>
<linearGradient id="paint0_linear_3621_7287" x1="41" y1="21" x2="41" y2="53" gradientUnits="userSpaceOnUse">
<stop stop-color="#F5F6F6"/>
<stop offset="1" stop-color="#CDD1D4"/>
</linearGradient>
</defs>
</svg>
