<svg width="16" height="16" viewBox="0 0 16 16" fill="none" xmlns="http://www.w3.org/2000/svg">
<g clip-path="url(#clip0_3621_7876)">
<path d="M2.6664 4V13.7778C2.66226 13.9488 2.69186 14.119 2.75352 14.2785C2.81517 14.4381 2.90765 14.584 3.0257 14.7078C3.14374 14.8316 3.28502 14.931 3.44148 15.0002C3.59793 15.0694 3.76648 15.1071 3.93751 15.1111H12.0397C12.2126 15.11 12.3836 15.0744 12.5426 15.0065C12.7016 14.9386 12.8455 14.8397 12.9659 14.7156C13.0863 14.5915 13.1808 14.4446 13.2438 14.2836C13.3069 14.1226 13.3372 13.9506 13.3331 13.7778V4H2.6664ZM6.6664 12.8889H5.77751V6.22222H6.6664V12.8889ZM10.222 12.8889H9.33306V6.22222H10.222V12.8889Z" fill="#D84D4D"/>
<path d="M13.6573 2.22225H10.2218V1.7778C10.2218 1.54206 10.1281 1.31596 9.96144 1.14927C9.79474 0.982567 9.56865 0.888916 9.3329 0.888916H6.57734C6.35732 0.911026 6.15344 1.01435 6.00552 1.17872C5.85759 1.34308 5.77624 1.55668 5.77734 1.7778V2.22225H2.22179C2.10391 2.22225 1.99087 2.26907 1.90752 2.35242C1.82417 2.43577 1.77734 2.54882 1.77734 2.66669C1.77734 2.78457 1.82417 2.89761 1.90752 2.98096C1.99087 3.06431 2.10391 3.11114 2.22179 3.11114H13.6573C13.7752 3.11114 13.8883 3.06431 13.9716 2.98096C14.055 2.89761 14.1018 2.78457 14.1018 2.66669C14.1018 2.54882 14.055 2.43577 13.9716 2.35242C13.8883 2.26907 13.7752 2.22225 13.6573 2.22225Z" fill="#D84D4D"/>
</g>
<defs>
<clipPath id="clip0_3621_7876">
<rect width="16" height="16" fill="white"/>
</clipPath>
</defs>
</svg>
