<svg width="94" height="65" viewBox="0 0 94 65" fill="none" xmlns="http://www.w3.org/2000/svg">
<path fill-rule="evenodd" clip-rule="evenodd" d="M61.069 6.87111C69.7802 4.8962 79.8059 -3.58379 87.0209 1.718C94.9408 7.53777 86.2212 23.2376 93.0221 30.3513C100.916 38.6083 117.278 32.8441 124.909 41.3485C131.9 49.1403 132.595 61.7144 130.375 71.9791C128.153 82.2555 121.219 91.4313 112.749 97.5755C104.754 103.376 94.371 104.252 84.5655 105.213C76.6245 105.991 68.7723 100.545 61.069 102.638C49.6683 105.735 40.7492 125.903 30.5619 119.886C19.8406 113.553 33.5146 93.9398 27.6483 82.8984C23.2575 74.634 8.36539 77.3272 3.65581 69.2431C-0.796524 61.6005 -0.529342 50.3354 4.4042 42.9992C9.69966 35.1248 22.3759 36.8752 29.5665 30.7136C34.9939 26.063 34.4932 16.6464 40.1897 12.3351C46.0126 7.92799 53.9646 8.48172 61.069 6.87111Z" fill="#ABB1B5"/>
</svg>
