<svg version="1.1" xmlns="http://www.w3.org/2000/svg" xmlns:xlink="http://www.w3.org/1999/xlink" x="0px" y="0px" viewBox="0 0 1122 1122" style="enable-background:new 0 0 1122 1122;" xml:space="preserve">
<g id="background">
	<rect y="0" style="fill:#FFFFFF;" width="1122" height="1122"></rect>
</g>
<g id="shadow">
	<path style="opacity: 1;" d="M607.261,973.467c16.597-1.765,33.18-3.68,49.763-5.592c54.818-6.322,109.647-10.283,164.573-14.146
		c38.998-2.743,78.244-4.198,117.214-0.169c33.507,3.464,73.966,10.421,99.842,36.389c14.514,14.565,8.341,32.961-13.002,45.365
		c-22.549,13.105-51.173,13.486-76.104,15.319c-234.384,17.226-467.511-5.38-701.971-4.44c-33.174,0.133-66.877,2.309-100.025,3.777
		c-20.136,0.891-46.309,4.682-66.094-0.797c-12.499-3.461-11.567-15.537-2.052-21.794c17.367-11.421,43.534-12.716,63.296-14.01
		c51.688-3.384,103.356-7.12,155.001-11.204C400.993,993.996,504.19,984.429,607.261,973.467z" data-index="0"></path>
</g>
<g id="object">
	<g>
		<g>
			<polygon style="fill:#EBCEB1;" points="774.349,444.106 776.942,423.69 785.661,424.555 786.963,438.978 791.247,437.46 
				786.914,454.626 777.747,454.959 			"></polygon>
		</g>
		<g>
			<path style="fill:#D1D9DB;" d="M827.654,571.424c13.152,1.175,28.225,0.562,36.945-9.352c7.091-8.062,7.693-20.074,5.351-30.553
				c-0.271-1.212-0.649-2.525-1.677-3.221c-0.949-0.642-2.19-0.578-3.331-0.49c-11.707,0.903-23.414,1.806-35.121,2.709
				c-6.562,0.506-19.711,4.165-23.288-0.964c-4.029-5.775-4.057-20.072-5.438-26.909c-3.591-17.769-7.182-35.538-10.773-53.306
				l-18.142,1.599c0.176,16.361,0.353,32.722,0.529,49.083c0.126,11.698,0.252,23.396,0.378,35.095
				C773.422,566.243,802.17,569.148,827.654,571.424z" data-index="1"></path>
		</g>
	</g>
	<path style="fill: rgb(209, 217, 219); opacity: 1;" d="M904.217,536.203c10.731,8.161,15.305,22.8,17.963,36.353
		c10.943,55.789,5.362,113.338-0.403,169.897c-0.645,6.329-2.168,9.065-8.268,6.346c-38.286-17.065-75.947-39.099-117.778-41.777
		c10.488-35.504,11.598-73.046,18.706-109.377c2.063-10.543,4.658-21.063,9.17-30.813c5.882-12.709,15.284-26.45,25.692-35.924
		c9.801-8.921,25.377-4.966,37.138-1.987c4.875,1.235,9.814,2.494,14.207,4.942C901.906,534.568,903.096,535.35,904.217,536.203z" data-index="2"></path>
	<g id="XMLID_27_">
		<g id="XMLID_29_">
			<g>
				<polygon style="fill:#EBCEB1;" points="394.328,561.71 404.981,564.716 413.507,559.895 415.446,561.148 413.957,563.577 
					422.179,561.562 428.34,564.49 429.835,573.356 425.33,581.565 416.227,582.17 406.536,577.456 391.768,573.965 				"></polygon>
			</g>
		</g>
		<g id="XMLID_28_">
			<g>
				<path style="fill:#D1D9DB;" d="M399.146,556.139c0,0-106.757-26.165-106.759-26.165c-3.683-0.903-8.091-4.965-11.282-6.922
					c-7.587-4.656-15.174-9.311-22.762-13.966c-5.189-3.184-14.292-11.34-20.587-11.337c-10.255,0.005-15.679,15.306-15.754,23.519
					c-0.228,25.205,23.319,36.009,40.872,49.525l16.931,8.762l118.537,2.366L399.146,556.139z" data-index="3"></path>
			</g>
		</g>
	</g>
	<g>
		<g>
			<g>
				<g>
					<path style="fill:#EBCEB1;" d="M269.958,426.412c-13.609,4.54-28.128-5.393-41.257,1.17
						c-8.536,4.267-14.342,15.011-15.739,25.86c-0.651,5.057-0.439,10.343,1.384,14.766c1.183,2.871,3,5.275,5.038,7.307
						c2.725,2.716,5.893,4.752,9.293,6.079c-1.315,3.635-2.904,7.152-4.743,10.49c6.701,1.26,13.401,2.52,20.102,3.781
						c0.868-4.565,1.735-9.13,2.603-13.695c1.893-0.59,3.754-1.37,5.546-2.385c10.836-6.143,18.729-19.854,19.536-33.938
						C272.099,439.248,271.047,432.778,269.958,426.412z" data-index="4"></path>
				</g>
			</g>
		</g>
		<path style="fill:#333333;" d="M201.068,455.488c-0.576-0.98-1.128-1.975-1.625-3.001c-6.032-12.45-9.269-27.068-0.346-39.067
			c9.088-12.221,27.702-17.566,41.928-13.943c7.839,1.996,16.125,4.68,23.81,2.157c2.299-0.755,4.528-2.04,5.831-4.078
			c1.209-1.89,1.52-4.253,2.768-6.116c2.92-4.361,10.889-3.329,12.603,1.631c0.503,1.454,0.535,3.076,1.294,4.415
			c1.68,2.967,5.78,3.096,9.161,3.54c1.084,0.142,2.253,0.408,2.943,1.257c1.257,1.547,0.06,3.987-1.67,4.978
			c-2.388,1.367-6.554,0.984-8.065,3.663c-1.092,1.937,0.58,5.652,0.299,7.888c-0.981,7.829-7.739,14.941-14.876,17.607
			c-6.838,2.554-12.961-0.219-19.792-1.968c-1.933-0.495-3.995-1.704-5.89-1.967c-2.389-0.331-4.743,0.839-7.025,1.346
			c-2.849,0.634-5.811,0.276-8.72,0.037c-2.909-0.239-5.937-0.338-8.64,0.765c-2.703,1.103-4.994,3.717-4.83,6.631
			c0.199,3.528,3.752,6.274,3.685,9.808c-0.058,3.064-2.782,5.351-3.947,8.185c-0.902,2.194-0.928,4.85-2.572,6.56
			c-0.73,0.759-1.719,1.249-2.382,2.067c-0.868,1.07-1.134,2.641-2.291,3.389c-1.281,0.828-3.082,0.174-4.069-0.989
			c-0.987-1.163-1.39-2.694-1.879-4.139C205.459,462.256,203.111,458.963,201.068,455.488z" data-index="5"></path>
	</g>
	<g>
		<path style="fill:#D1D9DB;" d="M226.764,490.587c-3.03-0.309-6.287-0.577-8.94,0.88c-2.388,1.311-3.823,3.771-5.114,6.126
			c-33.984,62.006-48.708,133.863-41.764,203.818c40.483-7.29,81.737-10.514,122.896-9.604
			c-3.751-27.192-7.502-54.384-11.253-81.575c-2.767-20.057-5.539-40.146-10.137-59.882c-4.03-17.297-9.457-34.285-16.216-50.759
			C251.965,489.186,236.411,491.572,226.764,490.587z" data-index="6"></path>
		<g>
			<g>
				<g>
					<path style="fill:#1A1A1A;" d="M314.819,1009.824l7.905,7.381c5.092,4.755,3.926,13.38-2.459,16.167
						c-3.763,1.643-9.064,1.389-16.395-3.628l-16.835-19.145l2.734-6.193l24.312-3.673L314.819,1009.824z" data-index="7"></path>
				</g>
			</g>
			<g>
				<g>
					<path style="fill:#3C6794;" d="M298.293,685.344l39.143,159.932l-11.531,156.472l-38.626,3.338l-8.913-141.135
						c0,0-84.73-154.643-79.882-157.992C203.332,702.611,298.293,685.344,298.293,685.344z" data-index="8"></path>
				</g>
			</g>
		</g>
		<g>
			<g>
				<g>
					<path style="fill:#1A1A1A;" d="M195.028,1009.818l7.92,7.366c5.102,4.745,3.952,13.372-2.427,16.172
						c-3.759,1.65-9.061,1.407-16.402-3.595l-16.873-19.111v-8.901l6.378-5.622l18.58,3.439L195.028,1009.818z" data-index="9"></path>
				</g>
			</g>
			<g>
				<g>
					<path style="fill:#3C6794;" d="M271.542,695.467L259.4,859.672l-56.976,144.549l-40.067-8.028l35.093-136.993
						c0,0-32.85-173.247-27.206-174.935S271.542,695.467,271.542,695.467z" data-index="10"></path>
				</g>
			</g>
		</g>
		<g>
			<polygon style="fill:#3C6794;" points="167.245,689.12 182.417,652.411 235.261,634.882 225.182,567.953 277.905,559.423 
				287.035,653.596 299.957,692.145 172.551,715.419 			"></polygon>
			<path style="fill:#3C6794;" d="M228.034,538.754c0.086-10.35-0.45-22.132-8.352-28.816c-1.778-1.504-3.968-2.681-6.296-2.668
				c-4.756,0.027-7.986,4.677-10.358,8.799c-0.782-6.149-1.232-12.944,2.372-17.988c4.586-6.419,14.55-7.204,21.286-3.097
				c6.736,4.107,10.523,11.855,11.955,19.614c1.431,7.758,0.856,15.723,0.849,23.612c-0.011,11.503,1.195,22.968,2.4,34.407
				c-4.604-0.309-9.098,0.633-13.586,0.828C225.561,563.337,227.945,549.401,228.034,538.754z" data-index="11"></path>
			<path style="fill:#3C6794;" d="M263.663,528.04c-1.146-9.969-3.557-20.971-11.838-26.64c-2.053-1.405-4.704-2.948-4.578-5.433
				c0.074-1.453,1.177-2.674,2.434-3.406c4.203-2.448,9.878-0.35,12.96,3.413c3.082,3.762,4.187,8.724,5.107,13.5
				c3.659,19.005,5.868,38.289,6.602,57.629c0.11,2.905-6.972,1.284-8.163-0.027c-1.949-2.146-0.862-7.188-0.874-9.768
				C265.269,547.523,264.781,537.765,263.663,528.04z" data-index="12"></path>
		</g>
	</g>
	<g>
		<g>
			<g>
				<polygon style="fill:#514943;" points="879.516,974.678 877.919,985.378 881.548,1005.717 893.5,1004.586 895.75,974.46 
					893.99,969.629 				"></polygon>
			</g>
		</g>
		<g>
			<g>
				<polygon style="fill:#514943;" points="823.322,1004.098 804.6,1017.823 806.936,1028.078 841.213,1019.907 838.425,1005.093 
									"></polygon>
			</g>
		</g>
		<g>
			<polygon style="fill:#3C6794;" points="786.436,734.374 787.047,875.136 818.421,1007.247 843.966,1007.247 842.37,854.005 
				857.737,738.183 846.48,715.267 789.722,721.709 			"></polygon>
		</g>
		<g>
			<polygon style="fill:#3C6794;" points="851.173,837.964 877.919,972.341 901.183,969.629 907.549,864.686 919.506,749.906 
				907.453,716.329 842.506,716.329 			"></polygon>
		</g>
		<g>
			<g>
				<path style="fill:#EACDB0;" d="M913.058,488.342c-2.421-22.955-31.61-37.038-44.07-13.641
					c-3.744,7.031-6.73,14.702-6.899,22.679c-0.168,7.977,2.87,16.318,9.227,20.968c0.036,0.027,0.074,0.047,0.111,0.073
					c-0.698,1.931-1.396,3.861-2.093,5.792c-0.15,0.414-0.3,0.875-0.14,1.284c0.182,0.466,0.693,0.688,1.156,0.863
					c2.258,0.855,4.516,1.711,6.775,2.567c1.119,0.424,2.288,0.855,3.478,0.732c2.607-0.271,4.253-3.025,4.914-5.604
					c0.157-0.617,0.286-1.247,0.411-1.879C900.763,520.331,914.64,503.348,913.058,488.342z" data-index="13"></path>
			</g>
		</g>
	</g>
	<g>
		<g>
			<g>
				<g>
					<path style="fill:#D1B337;" d="M769.31,230.901c-6.663,19.557,3.791,40.813,23.348,47.476
						c19.557,6.663,40.813-3.79,47.476-23.348c6.663-19.558-3.79-40.813-23.348-47.476
						C797.229,200.89,775.973,211.343,769.31,230.901z M792.224,238.707c2.352-6.903,9.854-10.592,16.756-8.24
						c6.903,2.352,10.592,9.853,8.241,16.756c-2.352,6.903-9.854,10.592-16.756,8.24
						C793.562,253.111,789.872,245.609,792.224,238.707z" data-index="14"></path>
				</g>
				<g>
					<path style="fill:#EFD154;" d="M688.424,223.516c-1.313,7.796-1.819,15.595-1.566,23.297l-19.379,6.67l6.328,31.996
						l20.484-1.21c2.736,7.301,6.186,14.317,10.299,20.941l-13.464,15.485l21.479,24.546l17.113-11.276
						c5.946,4.902,12.432,9.263,19.408,12.982l-3.916,20.132l30.874,10.518l9.19-18.335c7.796,1.313,15.595,1.819,23.297,1.566
						l6.67,19.379l31.996-6.328l-1.21-20.484c7.301-2.736,14.317-6.186,20.941-10.298l15.485,13.463l24.546-21.478l-11.276-17.113
						c4.903-5.946,9.263-12.431,12.983-19.408l20.132,3.915l10.518-30.874l-18.336-9.189c1.314-7.796,1.819-15.595,1.566-23.297
						l19.378-6.67l-6.328-31.996l-20.483,1.21c-2.736-7.301-6.186-14.318-10.299-20.941l13.464-15.484l-21.479-24.546
						l-17.114,11.276c-5.946-4.902-12.432-9.263-19.408-12.982l3.915-20.132l-30.874-10.518l-9.189,18.335
						c-7.796-1.313-15.595-1.819-23.297-1.566l-6.67-19.379l-31.996,6.328l1.21,20.483c-7.301,2.736-14.318,6.186-20.941,10.299
						l-15.485-13.463l-24.546,21.478l11.276,17.114c-4.902,5.946-9.263,12.431-12.982,19.408l-20.132-3.915l-10.518,30.874
						L688.424,223.516z M893.228,264.812L832.3,244.055c0.371-9.296-4.016-18.217-11.606-23.599l20.757-60.927
						C881.963,177.31,903.877,221.87,893.228,264.812z M803.631,270.543c9.297,0.371,18.217-4.016,23.599-11.605l60.928,20.757
						c-17.781,40.512-62.341,62.425-105.283,51.776L803.631,270.543z M800.464,255.463c-6.902-2.352-10.592-9.854-8.24-16.756
						c2.352-6.903,9.854-10.592,16.756-8.24c6.903,2.352,10.592,9.854,8.241,16.756
						C814.869,254.125,807.367,257.814,800.464,255.463z M716.216,221.117l60.928,20.757c-0.371,9.296,4.016,18.217,11.605,23.599
						L767.993,326.4C727.481,308.619,705.567,264.059,716.216,221.117z M721.286,206.236
						c17.781-40.512,62.341-62.425,105.283-51.776l-20.756,60.927c-9.297-0.371-18.217,4.016-23.599,11.606L721.286,206.236z" data-index="15"></path>
				</g>
				<g>
					<g>
						<path style="fill:#C1B23F;" d="M703.966,208.64c18.927-55.557,79.523-85.358,135.08-66.431
							c55.557,18.927,85.358,79.523,66.431,135.081c-18.927,55.556-79.523,85.357-135.081,66.43
							C714.84,324.793,685.04,264.197,703.966,208.64z M708.213,210.087c-18.129,53.214,10.416,111.257,63.63,129.386
							c53.216,18.129,111.259-10.416,129.388-63.63c18.129-53.215-10.416-111.258-63.631-129.387
							C784.385,128.327,726.342,156.871,708.213,210.087z" data-index="16"></path>
					</g>
				</g>
				<g>
					<path style="fill:#D1B337;" d="M714.377,230.86c-5.372,39.775,16.163,79.101,53.615,95.54l7.331-21.518
						c4.309,3.747,8.641,7.305,12.97,10.682l-5.419,15.906c10.387,2.576,20.866,3.23,31.041,2.193
						c11.973,7.644,23.464,13.934,33.836,19.038c-0.577,0.227-1.143,0.477-1.724,0.695l1.21,20.483l-31.996,6.328l-6.67-19.378
						c-7.702,0.253-15.501-0.253-23.297-1.566l-9.19,18.335L745.21,367.08l3.916-20.132c-6.977-3.719-13.462-8.08-19.408-12.982
						l-17.114,11.276l-21.478-24.546l13.464-15.485c-4.112-6.624-7.563-13.641-10.299-20.941l-20.484,1.21l-6.328-31.996
						l19.379-6.67c-0.253-7.702,0.253-15.501,1.566-23.297l-18.336-9.189l10.518-30.874l13.681,2.661
						C699.848,202.307,706.66,217.192,714.377,230.86z" data-index="17"></path>
				</g>
				<g>
					<path style="fill:#ADA03B;" d="M706.469,215.755c-14.326,51.606,14.044,106.231,65.375,123.718
						c18.774,6.396,38.148,6.976,56.159,2.719c1.902,1.091,3.782,2.145,5.641,3.166c-20.084,5.704-42.032,5.589-63.247-1.638
						c-55.214-18.81-84.98-78.777-66.766-134.051C704.558,211.719,705.501,213.751,706.469,215.755z" data-index="18"></path>
				</g>
			</g>
			<g>
				<path style="fill:#FAEB7D;" d="M856.263,136.514c0.113,0.382,3.878-16.051,3.878-16.051l-24.73-8.273
					C835.411,112.19,851.646,120.833,856.263,136.514z" data-index="19"></path>
			</g>
		</g>
	</g>
	<g>
		<g>
			<g>
				<path style="fill:#659993;" d="M494.14,510.129l-13.981,7.011c0.664,5.289,1.577,10.575,2.753,15.844
					c1.176,5.269,2.597,10.442,4.245,15.511l15.635,0.401c17.784,0.457,28.138,20.28,18.354,35.137l-8.64,13.12
					c6.44,8.519,13.716,16.422,21.759,23.606l13.757-7.478c15.63-8.496,34.509,3.494,33.464,21.253l-0.92,15.631
					c9.922,4.226,20.168,7.452,30.617,9.658l8.201-13.399c9.288-15.173,31.633-14.229,39.607,1.673l7.011,13.981
					c5.289-0.664,10.575-1.577,15.844-2.753c5.269-1.176,10.442-2.597,15.511-4.245l0.402-15.635
					c0.457-17.784,20.28-28.139,35.137-18.354l13.12,8.64c8.519-6.44,16.422-13.716,23.606-21.759l-7.479-13.757
					c-8.496-15.63,3.494-34.509,21.253-33.464l15.631,0.92c4.226-9.922,7.452-20.168,9.658-30.617l-13.399-8.201
					c-15.173-9.287-14.229-31.633,1.674-39.607l13.981-7.011c-0.664-5.289-1.577-10.575-2.753-15.844
					c-1.176-5.269-2.597-10.442-4.245-15.511l-15.635-0.402c-17.784-0.457-28.139-20.28-18.354-35.137l8.64-13.12
					c-6.439-8.519-13.716-16.422-21.759-23.606l-13.757,7.478c-15.63,8.496-34.509-3.494-33.464-21.253l0.92-15.631
					c-9.922-4.226-20.168-7.452-30.617-9.658l-8.202,13.399c-9.287,15.173-31.633,14.229-39.607-1.673l-7.011-13.981
					c-5.289,0.664-10.575,1.577-15.844,2.753c-5.269,1.176-10.442,2.597-15.511,4.245l-0.402,15.635
					c-0.457,17.784-20.28,28.138-35.137,18.354l-13.12-8.64c-8.519,6.44-16.422,13.716-23.606,21.759l7.478,13.757
					c8.496,15.63-3.494,34.509-21.253,33.464l-15.631-0.92c-4.226,9.922-7.452,20.169-9.658,30.617l13.399,8.201
					C510.986,479.809,510.042,502.154,494.14,510.129z M632.293,479.23c-0.54,0.411-1.067,0.847-1.577,1.315
					c-0.724,0.666-1.388,1.372-2.002,2.107l-66.118-9.951c6.628-22.847,22.559-42.4,44.37-53.272
					c5.481-2.732,12.075,0.42,13.409,6.397L632.293,479.23z M701.744,446.936l-45.702,30.502c-1.874-1.022-3.867-1.751-5.915-2.187
					l-11.919-53.405c-1.335-5.985,3.305-11.635,9.435-11.491c20.653,0.485,40.131,8.414,55.155,21.7
					C707.418,436.141,706.872,443.513,701.744,446.936z M646.537,483.541c7.26,0.545,12.704,6.873,12.158,14.133
					c-0.545,7.26-6.873,12.704-14.133,12.159c-7.26-0.545-12.704-6.873-12.159-14.134
					C632.949,488.439,639.277,482.996,646.537,483.541z M667.344,499.011c0.245-2.301,0.127-4.634-0.357-6.91l45.346-30.265
					c5.021-3.352,11.915-1.211,14.034,4.442c1.399,3.731,2.556,7.603,3.449,11.603c4.091,18.33,2.021,36.598-4.831,52.645
					c-2.481,5.809-9.797,7.666-14.684,3.664L667.344,499.011z M619.137,567.296l24.155-48.807c5.012,0.517,10.18-0.682,14.546-3.645
					l42.004,34.397c4.626,3.788,4.61,10.876-0.039,14.636c-10.02,8.104-22.016,14.08-35.446,17.077
					c-13.31,2.97-26.587,2.693-39.005-0.305C619.48,579.231,616.458,572.709,619.137,567.296z M570.204,492.324l53.746,8.089
					c0.528,3.076,1.715,6.065,3.573,8.744l-24.429,49.36c-2.733,5.523-9.984,7.032-14.612,2.963
					c-13.25-11.649-23.062-27.449-27.199-45.987c-0.989-4.433-1.617-8.862-1.903-13.257
					C558.989,496.242,564.264,491.43,570.204,492.324z" data-index="20"></path>
			</g>
		</g>
		<g style="opacity:0.11;">
			<g>
				<path d="M535.607,488.428c4.554-60.623,57.579-106.238,118.202-101.684c60.623,4.554,106.238,57.579,101.684,118.202
					c-4.554,60.623-57.579,106.238-118.202,101.684C576.668,602.076,531.053,549.051,535.607,488.428z M557.306,490.058
					c-3.655,48.658,32.957,91.217,81.615,94.872c48.658,3.655,91.218-32.957,94.873-81.615
					c3.655-48.658-32.957-91.217-81.615-94.872C603.521,404.788,560.961,441.4,557.306,490.058z" data-index="21"></path>
			</g>
		</g>
	</g>
	<g>
		<g>
			<g>
				<g>
					<path style="fill:#8C314C;" d="M656.886,250.995c0.587-4.191,0.884-8.38,0.959-12.518l-20.878-7.186l-3.848-21.55l17.082-13.99
						c-3.121-7.956-7.164-15.475-11.992-22.441l-21.125,6.487l-15.803-15.155l5.598-21.392c-6.877-4.373-14.311-8.043-22.202-10.825
						l-13.381,17.616l-21.678-3.14l-7.917-20.664c-8.619,0.489-17.028,1.966-25.09,4.368l-0.461,22.106l-19.378,10.229
						l-18.539-12.01c-6.55,5.355-12.506,11.47-17.7,18.271l12.59,18.128l-9.625,19.657l-22.062,1.199
						c-1.105,4.217-2.007,8.565-2.622,13.034c-0.535,4.083-0.842,8.123-0.955,12.141l20.876,7.249l3.778,21.562l-17.172,13.935
						c3.134,7.963,7.141,15.551,11.969,22.534l21.153-6.419l15.759,15.201l-5.688,21.382c7.095,4.524,14.743,8.319,22.88,11.166
						l13.332-17.672l21.691,3.049l7.958,20.643c8.62-0.528,17.023-2.048,25.083-4.467l0.396-22.104l19.331-10.313l18.569,11.958
						c6.559-5.399,12.505-11.527,17.666-18.326l-12.69-18.082l9.559-19.731l22.082-1.23
						C655.447,259.547,656.31,255.31,656.886,250.995z M573.77,278.058c-23.137,14.295-53.544,7.221-67.903-16.033
						c-14.263-23.215-7.119-53.572,16.078-67.842c23.129-14.386,53.54-7.219,67.848,15.947
						C604.189,233.354,596.954,263.76,573.77,278.058z" data-index="22"></path>
				</g>
				<g>
					<path style="fill:#FFFFFF;" d="M609.258,198.178c-20.946-33.908-65.481-44.455-99.399-23.511
						c-33.889,20.976-44.406,65.439-23.4,99.403c20.942,33.898,65.452,44.401,99.34,23.457
						C619.717,276.582,630.213,232.069,609.258,198.178z M582.079,291.504c-30.566,18.892-70.714,9.418-89.604-21.158
						c-18.947-30.635-9.461-70.74,21.106-89.661c30.593-18.891,70.764-9.378,89.657,21.207
						C622.139,232.463,612.672,272.614,582.079,291.504z" data-index="23"></path>
				</g>
				<g>
					<path style="fill:#782441;" d="M493.595,306.815l0.629,0.607l-5.291,21.258l-0.398,0.124
						c7.095,4.524,14.743,8.319,22.88,11.166l-0.137-0.386l13.469-17.286l21.691,3.049l8.235,20.308l-0.277,0.335
						c8.62-0.528,17.023-2.048,25.083-4.467l-0.33-0.213l0.727-21.891l19.331-10.313l18.61,11.589l-0.041,0.369
						c6.559-5.399,12.505-11.527,17.666-18.326l-0.393,0.037l-12.297-18.119l9.559-19.731l21.851-1.544l0.232,0.313
						c1.053-4.149,1.917-8.387,2.492-12.702c0.587-4.191,0.884-8.38,0.959-12.518l-0.281,0.27l-5.84-2.114
						C601.557,287.994,540.479,303.611,493.595,306.815z" data-index="24"></path>
				</g>
				<g>
					<path style="fill:#BB899A;" d="M585.799,297.526c11.635-7.185,20.513-17.144,26.311-28.496
						c-4.557,2.935-9.146,5.657-13.752,8.182c-4.472,5.497-9.911,10.361-16.28,14.293c-13.912,8.599-29.806,11.303-44.78,8.834
						c-5.214,1.215-10.36,2.246-15.416,3.112C542.221,311.276,565.849,309.856,585.799,297.526z" data-index="25"></path>
				</g>
			</g>
			<g>
				<path style="fill:#A63F65;" d="M517.702,148.132l0.884-17.823c0,0,11.254-3.704,19.368-3.686
					C537.954,126.623,524.384,129.162,517.702,148.132z" data-index="26"></path>
			</g>
		</g>
	</g>
	<g>
		<path style="opacity:0.14;" d="M611.414,1018.351c1.971-0.94,3.759-2.087,4.072-3.294c0.342-1.32-0.742-2.645-2.076-3.383
			c-3.802-2.105-12.537-1.077-16.943-1.113c-7.929-0.066-15.862,0.005-23.784,0.253c-3.635,0.114-43.337,1.142-39.604,7.948
			c3.273,5.966,24.475,7.297,30.349,7.18c9.642-0.191,19.344-0.47,28.83-2.041c4.869-0.806,9.672-1.951,14.245-3.59
			C607.618,1019.91,609.594,1019.219,611.414,1018.351z" data-index="27"></path>
		<g>
			<circle style="fill:#435B6E;" cx="550.106" cy="992.941" r="32.029"></circle>
			<polygon style="fill:#2E414C;" points="537.765,1012.012 527.419,991.789 539.759,972.718 562.446,973.87 572.792,994.092 
				560.452,1013.163 			"></polygon>
			<circle style="fill:#22323A;" cx="550.106" cy="992.941" r="11.731"></circle>
		</g>
	</g>
	<g>
		<g>
			<path style="fill:#2E414C;" d="M599.343,892.479l33.81-64.486l28.126,17.214l-41.73,59.639l-11.122-1.743
				c-1.116-0.175-2.114-0.793-2.767-1.714L599.343,892.479z" data-index="28"></path>
			<path style="fill:#435B6E;" d="M604.086,882.726c9.277,3.354,18.806,6.605,28.624,9.759c4.192,1.347,6.793-5.145,2.438-6.506
				c-10.174-3.178-20.041-6.462-29.637-9.856C601.543,874.719,600.253,881.341,604.086,882.726z" data-index="29"></path>
			<path style="fill:#435B6E;" d="M598.565,893.391c8.652,3.248,17.524,6.407,26.646,9.481c3.891,1.311,6.075-4.429,2.044-5.756
				c-9.429-3.103-18.593-6.297-27.523-9.588C596.037,886.166,594.987,892.048,598.565,893.391z" data-index="30"></path>
			<path style="fill:#435B6E;" d="M616.373,858.842c10.713,3.276,21.8,6.397,33.314,9.369c4.938,1.275,9.184-7.828,4-9.099
				c-12.057-2.954-23.649-6.075-34.835-9.367C614.243,848.39,611.962,857.493,616.373,858.842z" data-index="31"></path>
			<path style="fill:#435B6E;" d="M610.374,870.578c9.997,3.458,20.288,6.797,30.915,10.022c4.543,1.379,7.664-6.032,2.93-7.421
				c-11.045-3.242-21.729-6.608-32.098-10.104C607.839,861.632,606.248,869.151,610.374,870.578z" data-index="32"></path>
		</g>
		<polygon style="opacity:0.15;fill:#FFFFFF;" points="617.785,904.569 648.967,849.814 653.903,854.799 619.309,904.615 		"></polygon>
		<g>
			<path style="fill:#5C7789;" d="M684.794,837.328c0.427-11.025-8.138-22.938-19.015-29.595
				c-10.877-6.657-25.383-8.864-35.006-3.468c-14.591,8.182-14.169,30.511,9.565,45.037
				C664.071,863.828,684.147,854.044,684.794,837.328z" data-index="33"></path>
			<g>
				<path style="fill:#435B6E;" d="M644.607,842.326c-23.734-14.526-25.498-34.66-11.949-41.141
					c8.936-4.274,23.036-1.404,33.914,5.253c10.877,6.657,19.848,17.907,20.108,27.81
					C687.073,849.263,668.341,856.852,644.607,842.326z" data-index="34"></path>
				<polygon style="fill:#2E414C;" points="648.79,803.892 665.746,809.513 677.626,822.575 674.182,836.159 649.251,831.778 
					636.814,811.533 				"></polygon>
				<path style="fill:#22323A;" d="M655.655,824.274c-6.324-3.871-8.754-9.721-5.879-12.612c2.472-2.487,8.136-1.876,12.945,1.068
					c4.809,2.944,7.931,7.708,6.841,11.042C668.295,827.646,661.979,828.144,655.655,824.274z" data-index="35"></path>
			</g>
		</g>
	</g>
	<g>
		<g>
			<path style="fill:#2E414C;" d="M723.786,652.173l-39.805-68.159l25.006-14.343l39.805,68.158l-6.067,12.111
				c-1.013,2.023-3.139,3.243-5.397,3.099L723.786,652.173z" data-index="36"></path>
			<path style="fill:#435B6E;" d="M697.801,609.579c8.242-7.782,16.331-15.744,24.266-23.886c3.331-3.417-2.505-9.686-5.842-6.263
				c-7.935,8.142-16.024,16.104-24.266,23.886C688.5,606.582,694.347,612.84,697.801,609.579z" data-index="37"></path>
			<path style="fill:#435B6E;" d="M706.372,624.522c8.242-7.782,16.331-15.744,24.266-23.886c3.331-3.417-2.505-9.686-5.842-6.263
				c-7.935,8.142-16.024,16.104-24.266,23.886C697.071,621.524,702.917,627.783,706.372,624.522z" data-index="38"></path>
			<path style="fill:#435B6E;" d="M714.942,639.464c8.242-7.782,16.331-15.744,24.266-23.886c3.331-3.417-2.505-9.686-5.842-6.263
				c-7.935,8.142-16.024,16.104-24.266,23.886C705.642,636.467,711.488,642.726,714.942,639.464z" data-index="39"></path>
			<path style="fill:#435B6E;" d="M723.513,654.407c8.242-7.782,16.331-15.744,24.266-23.886c3.331-3.417-2.505-9.686-5.842-6.263
				c-7.935,8.142-16.024,16.104-24.266,23.886C714.212,651.41,720.059,657.669,723.513,654.407z" data-index="40"></path>
		</g>
		<polygon style="opacity:0.08;fill:#FFFFFF;" points="744.102,647.279 742.162,651.306 700.73,584.664 711.043,577.167 		"></polygon>
		<g>
			<path style="fill:#5C7789;" d="M715.513,541.157c-9.75-4.459-24.901-1.163-36.483,6.153s-20.996,19.54-21.039,30.185
				c-0.064,16.14,20.34,24.014,45.612,8.049S730.295,547.918,715.513,541.157z" data-index="41"></path>
			<g>
				<path style="fill:#435B6E;" d="M699.479,579.129c-25.272,15.965-44.379,10.109-43.309-4.466
					c0.706-9.613,10.512-21.226,22.094-28.543c11.582-7.317,26.342-11.222,35.428-7.795
					C727.469,543.52,724.75,563.164,699.479,579.129z" data-index="42"></path>
				<polygon style="fill:#2E414C;" points="668.201,563.388 681.956,550.224 699.841,544.373 710.362,552.491 693.65,573.281 
					668.985,576.978 				"></polygon>
				<path style="fill:#22323A;" d="M690.141,564.751c-6.734,4.254-13.266,4.276-14.41,0.623c-0.984-3.142,2.465-8.006,7.586-11.242
					c5.121-3.235,11.025-4.279,13.482-2.068C699.654,554.636,696.875,560.497,690.141,564.751z" data-index="43"></path>
			</g>
		</g>
	</g>
	<g>
		<g>
			<path style="fill:#2E414C;" d="M554.891,502.838l12.914,38.164c1.472,4.35,6.191,6.683,10.541,5.211l4.801-1.625
				c4.35-1.472,6.683-6.191,5.211-10.541l-12.914-38.164c-1.472-4.35-6.191-6.683-10.541-5.211l-4.801,1.625
				C555.752,493.769,553.419,498.488,554.891,502.838z" data-index="44"></path>
			<path style="fill:#435B6E;" d="M562.181,528.485c9.173-0.163,18.346-0.234,27.521-0.214c2.598,0.006,2.855,4.059,0.233,4.054
				c-9.174-0.021-18.348,0.051-27.521,0.214C559.811,532.585,559.558,528.531,562.181,528.485z" data-index="45"></path>
			<path style="fill:#435B6E;" d="M558.091,516.4c9.173-0.163,18.346-0.234,27.521-0.214c2.598,0.006,2.855,4.06,0.233,4.054
				c-9.174-0.021-18.348,0.051-27.521,0.214C555.721,520.5,555.469,516.446,558.091,516.4z" data-index="46"></path>
			<path style="fill:#435B6E;" d="M555.714,505.419c9.173-0.163,18.346-0.234,27.521-0.214c2.598,0.006,2.855,4.059,0.232,4.054
				c-9.174-0.021-18.348,0.051-27.521,0.214C553.345,509.519,553.092,505.466,555.714,505.419z" data-index="47"></path>
		</g>
		<path style="fill:#AFBDC6;" d="M557.976,495.049c5.123-0.721,10.258-1.378,15.408-1.946c3.797-0.418,9.516-2.135,13.268-0.121
			c3.584,1.925,5.419,7.377,7.07,10.854c2.286,4.816,4.264,9.772,5.908,14.824c1.476,4.535,2.66,9.144,3.626,13.791
			c0.756,3.638,1.348,7.259-1.683,9.748c-6.578,5.403-18.283,4.678-26.428,4.568c-4.85-0.066-5.6-7.826-0.714-7.759
			c6.779,0.092,13.472,0.099,19.88-1.964c2.405-0.774,2.104-0.849,1.585-3.471c-0.39-1.971-0.863-3.932-1.375-5.881
			c-0.897-3.416-1.944-6.803-3.139-10.14c-1.196-3.337-2.532-6.629-4.012-9.86c-0.8-1.746-1.635-3.821-2.667-5.43
			c-1.44-2.245-1.474-1.986-3.73-2.108c-3.327-0.18-7.034,0.715-10.306,1.098c-4.001,0.469-7.992,0.995-11.977,1.555
			C553.916,503.479,553.227,495.717,557.976,495.049z" data-index="48"></path>
		<path style="fill:#2E414C;" d="M540.069,499.838c3.627-1.026,7.317-1.513,10.935-2.578c0.561-0.19,1.121-0.37,1.675-0.539
			c4.791-1.456,7.713,5.734,2.891,7.442c-1.247,0.442-2.499,0.851-3.762,1.225c-2.939,1.137-5.51,2.871-5.351,6.488
			c0.208,4.747,2.127,9.851,3.876,14.242c1.854,4.653,4.215,9.069,7.084,13.183c1.696,2.432,1.515,2.962,4.369,2.608
			c2.542-0.315,5.08-0.667,7.62-1.001c2.586-0.34,4.072,1.583,4.233,3.623c0.895,1.564,0.844,3.581-1.066,4.863
			c-5.66,3.797-13.362,7.534-19.696,2.466c-3.251-2.601-4.524-7.244-6.106-10.905c-1.898-4.394-3.795-8.788-5.693-13.182
			c-2.681-6.206-8.788-15.191-6.969-22.241C534.896,502.475,537.133,500.668,540.069,499.838z" data-index="49"></path>
		<path style="fill:#AFBDC6;" d="M612.754,523.813c10.554-1.107,20.819-3.015,31.21-5.147c6.953-1.427,13.794-2.644,20.55-4.815
			c6.655-2.138,13.249-4.471,19.973-6.388c5.026-1.433,20.753-7.464,23.978-0.936c1.949,3.948-2.057,8.752-4.4,11.556
			c-3.472,4.154-7.113,8.377-10.834,12.261c-11.15,11.641-23.799,21.839-37.553,30.246c-10.879,6.65-22.606,12.233-35.044,14.889
			c-1.432,0.306-2.874,0.573-4.326,0.798c-0.608,0.094-1.256,0.177-1.817-0.078c-0.823-0.373-1.18-1.328-1.453-2.189
			c-4.427-13.954-7.998-28.179-10.688-42.569c-0.343-1.836-0.648-3.839,0.234-5.484
			C604.017,523.285,610.176,524.083,612.754,523.813z" data-index="50"></path>
		<g>
			<path style="fill: rgb(67, 91, 110); opacity: 1;" d="M541.738,500.857c-2.091,0.26-3.321,2.391-2.593,4.493l13.344,38.558
				c0.595,1.718,2.31,2.817,4.012,2.57l16.947-2.46l12.519,36.647l-0.001,0c-0.402-0.547-5.605-0.588-7.41-1.31
				c-3.218-1.286-6.022-1.696-9.489-2.043c-22.089-2.207-45.554-2.885-64.384,10.804c-30.286,22.016-60.047,44.834-89.816,67.542
				c-30.198,23.036-60.154,46.398-89.573,70.423c-0.589,0.481-1.177,0.962-1.765,1.443c-14.549,11.903-28.967,23.963-43.422,35.978
				c-7.516,6.247-15.042,12.483-22.602,18.679c-8.126,6.66-13.162,13.622-24.63,10.043c-10.237-3.195-20.461-10.456-27.182-18.72
				c-5.518-6.785-9.169-14.728-10.984-23.268c-1.961-9.221-5.518-20.695,3.96-26.725c4.159-2.646,8.268-5.277,12.24-8.204
				c61.168-41.565,123.422-82.96,183.704-126.282c4.273-3.071,8.547-6.14,12.829-9.198c15.832-11.307,42.129-31.581,57.59-43.409
				c30.122-23.045,33.625-40.063,50.968-68.045c7.003-11.298,13.547-22.875,19.782-34.613l22.23,65.075L541.738,500.857z" data-index="51"></path>
			<path style="fill:#C1D0DB;" d="M588.66,402.485c22.788-4.305,78.841,23.628,93.592,29.784
				c14.751,6.156,5.149,17.771,5.149,17.771c-2.642,0.398-5.28,0.828-7.916,1.263c-7.133,1.178-14.252,2.442-21.35,3.814
				c-5.188,1.003-10.368,2.05-15.543,3.121c-2.587,0.536-5.179,1.057-7.759,1.623c-2.064,0.453-3.956,1.513-6,2.145
				c-2.275,0.704-4.553,1.409-6.76,2.306c-4.208,1.71-8.774,4.107-12.184,7.154c-1.198,1.07-3.053,3.853-2.399,5.673
				c0.077,0.215,35.911,99.881,35.911,99.881c0.425,1.184-0.435,2.436-1.693,2.462l-55.742,1.183
				c0.008-0.003,2.573-1.986,1.942-9.008c-0.431-4.805-1.395-9.559-2.511-14.247c-1.165-4.897-2.584-9.724-4.042-14.54l14.102-2.047
				c4.335-0.629,6.775-5.156,5.113-9.486l-12.764-33.263c-0.625-1.63-2.263-2.661-3.901-2.458l-16.442,2.043
				c-8.101-24.163-17.405-47.921-27.87-71.156c-1.256,2.426-2.53,4.843-3.812,7.256l-1-2.928
				C543.649,419.759,565.872,406.79,588.66,402.485z" data-index="52"></path>
			<path style="fill:#C1D0DB;" d="M581.356,542.871c1.458,4.816,2.877,9.643,4.042,14.54c1.115,4.688,2.079,9.441,2.511,14.247
				c0.631,7.022-1.935,9.005-1.942,9.008l-12.519-36.647L581.356,542.871z" data-index="53"></path>
			<path style="fill:#C1D0DB;" d="M567.465,497.66l-9.452,1.174l-22.23-65.075c1.282-2.413,2.555-4.83,3.812-7.256
				C550.06,449.739,559.364,473.498,567.465,497.66z" data-index="54"></path>
		</g>
		<g>
			<path style="fill:#E29530;" d="M419.982,655.386c-0.545,0.416-1.09,0.832-1.635,1.247
				c-32.167,24.538-64.075,49.422-95.412,75.013c-0.627,0.512-1.254,1.024-1.88,1.537c-15.497,12.678-30.855,25.525-46.253,38.323
				c-8.006,6.654-16.022,13.297-24.075,19.896c-8.656,7.094-14.02,14.51-26.235,10.698c-10.904-3.403-21.795-11.138-28.954-19.941
				c-5.878-7.228-9.766-15.688-11.701-24.785c-2.089-9.822-5.877-22.044,4.219-28.467c4.43-2.818,8.807-5.621,13.038-8.739
				c58.071-39.46,119.558-80.665,177.159-121.418L419.982,655.386z" data-index="55"></path>
			
				<ellipse transform="matrix(0.6642 -0.7475 0.7475 0.6642 -489.3814 423.0488)" style="fill:#FFFFFF;" cx="226.243" cy="756.299" rx="16.265" ry="16.265"></ellipse>
		</g>
		<path style="opacity: 1; fill: rgb(255, 255, 255);" d="M415.804,629.807l-12.709-17.249c-2.381-3.232-1.696-7.777,1.535-10.158
			c20.669-15.223,89.242-65.986,93.459-72.464c3.728-5.728,7.695-11.307,11.619-16.901c2.245-3.201,9.606-17.818,13.116-18.814
			c7.885-2.238,11.61,19.673,13.369,24.794c3.491,10.161,6.848,20.368,10.151,30.594c1.03,3.19-1.242,6.48-4.59,6.654
			c-7.404,0.385-19.458,1.951-28.408,7.731c-11.544,7.456-68.569,52.464-87.186,67.204
			C422.936,633.751,418.243,633.118,415.804,629.807z" data-index="56"></path>
		<g>
			<path style="fill:#435B6E;" d="M216.389,742.713c7.682-5.66,18.536-4.015,24.196,3.667c5.66,7.682,4.015,18.536-3.667,24.196
				s-18.536,4.015-24.196-3.667C207.062,759.227,208.707,748.373,216.389,742.713z M217.473,744.185
				c-6.871,5.062-8.342,14.77-3.28,21.641c5.062,6.871,14.77,8.341,21.641,3.279c6.871-5.062,8.342-14.77,3.28-21.641
				C234.052,740.594,224.344,739.122,217.473,744.185z" data-index="57"></path>
		</g>
	</g>
	<g id="XMLID_24_">
		<g id="XMLID_26_">
			<g>
				<polygon style="fill:#EBCEB1;" points="329.241,663.265 338.24,670.523 348.408,669.39 349.756,671.389 347.329,673.11 
					356.053,674.548 360.77,679.888 358.568,689.017 350.873,695.054 341.882,691.9 334.508,683.397 321.755,673.985 				"></polygon>
			</g>
		</g>
		<g id="XMLID_25_">
			<g>
				<path style="fill:#D1D9DB;" d="M338.8,661.319c0,0-81.398-80.952-81.399-80.953c-2.808-2.793-4.562-8.803-6.361-12.274
					c-4.278-8.255-8.556-16.509-12.834-24.763c-2.926-5.645-6.672-17.849-12.305-21.239c-9.176-5.523-22.277,5.24-26.77,12.547
					c-13.791,22.425,1.45,44.782,9.867,66.335l10.423,16.964l104.765,66.012L338.8,661.319z" data-index="58"></path>
			</g>
		</g>
	</g>
	<g>
		<path style="fill:#3C6794;" d="M186.755,432.274c0.351,10.034,4.505,19.604,10.174,27.727c2.927-0.715,5.625-2.188,8.273-3.672
			c11.908-6.672,23.651-13.934,33.596-23.475c9.946-9.541,18.074-22.501,21.999-33.176c-8.472-6.524-21.689-9.748-32.615-9.093
			C208.245,391.783,185.985,410.267,186.755,432.274z" data-index="59"></path>
		<path style="fill:#3C6794;" d="M273.533,374.394c3.728-1.44,8.303-2.512,11.432-0.026c3.705,2.944,2.868,8.756,1.193,13.182
			c-5.642,14.905-16.996,27.566-31.201,34.793c-6.159,3.134-17.791,5.756-20.587-3.349c-1.494-4.866,2.076-14.053,4.263-18.635
			C244.607,387.84,261.289,379.121,273.533,374.394z" data-index="60"></path>
	</g>
	<path style="fill:#3C6794;" d="M897.942,608.428l-9.948,0.052c0.351-5.334,0.702-10.669,1.053-16.003
		c0.526-7.992,1.055-16.013,2.651-23.861c2.535-12.466,7.779-24.375,15.265-34.66c-3.772-4.257-10.922-4.948-15.439-1.492
		c-3.324,2.542-4.975,6.66-6.349,10.613c-5.088,14.636-8.418,29.877-9.933,45.297c-0.581,5.912-2.006,13.733-1.431,20.18
		l-33.875,0.177c0.434-6.595,0.868-13.19,1.302-19.786c0.526-7.992,1.055-16.012,2.651-23.861c1.588-7.811,4.24-15.404,7.841-22.515
		c3.388-6.691,6.861-15.043,13.29-18.898c-5.589-0.235-11.223,0.629-16.485,2.528c-6.171,2.227-9.108,7.414-11.17,13.345
		c-5.088,14.636-8.418,29.877-9.933,45.297c-0.688,7.006-2.574,16.702-0.896,23.602c0.031,0.126,0.053,0.238,0.079,0.356
		l-8.683,0.045l-28.209,112.865h119.662L897.942,608.428z" data-index="61"></path>
	<g>
		<g>
			<polygon style="fill:#EBCEB1;" points="718.319,617.59 699.412,609.464 702.649,601.322 716.871,604.052 716.594,599.515 
				731.898,608.417 729.688,617.32 			"></polygon>
		</g>
		<g>
			<path style="fill:#D1D9DB;" d="M905.693,560.772c-1.439-0.785-3.094-1.396-4.963-1.795c-7.754-1.657-15.974,0.447-22.973,4.212
				c-11.082,5.961-20.362,15.448-30.696,22.62c-11.821,8.204-23.641,16.409-35.462,24.613l-83.843-6.739l-3.47,17.879
				c0,0,99.632,27.449,99.633,27.449c15.161-11.652,29.932-23.097,45.713-33.718c14.146-9.521,31.341-16.869,40.32-32.062
				C915.021,574.651,913.603,565.085,905.693,560.772z" data-index="62"></path>
		</g>
	</g>
	<path style="fill:#534741;" d="M860.305,468.79c-2.79-4.412-4.898-9.63-8.025-13.269c-3.792-4.413-10.269-6.71-12.155-12.214
		c-2.298-6.706,1.81-14.368,8.006-17.118c3.729-1.655,7.924-1.966,11.998-1.745c2.023,0.11,4.071,0.352,5.943,1.127
		c3.514,1.455,6.146,4.857,6.672,8.624c0.376,2.696-0.237,5.57,0.817,8.08c3.513,8.366,13.478,9.515,21.044,11.474
		c7.729,2.001,14.901,2.329,21.567,7.407c10.334,7.873,14.023,22.849,9.82,35.142c-4.204,12.293-15.403,21.559-27.969,24.857
		c-7.059,1.853-1.148-3.492,0.626-5.206c3.532-3.414,6.575-7.628,8.187-12.295c2.09-6.052,1.451-13.347-2.878-18.064
		c-3.822-4.165-9.68-5.663-15.21-6.836c-3.485-0.739-7.316-1.98-10.896-1.933c-2.502,0.033-4.557,0.669-7.112,0.184
		C865.88,476.081,862.816,472.763,860.305,468.79z" data-index="63"></path>
	<g>
		<path style="fill:#3C6794;" d="M930.285,527.502c2.377,2.361,5.496,4.733,8.752,3.945c2.212-0.535,3.872-2.487,4.616-4.638
			c0.744-2.15,0.708-4.487,0.537-6.756c-1.055-13.987-7.113-27.544-16.828-37.661c-1.856-1.933-4.217-3.876-6.877-3.555
			c-3.71,0.447-6.19,5.453-7.71,8.434c-1.187,2.328,3.348,5.386,4.429,7.838c1.315,2.981,1.672,6.41,0.806,9.566
			c-0.734,2.672-0.952,4.999,0.372,7.617C921.216,517.895,925.864,523.11,930.285,527.502z" data-index="64"></path>
		<path style="fill:#3C6794;" d="M893.038,462.838c4.222,4.137,8.331,8.416,11.872,13.149c6.842,9.146,10.204,19.513,15.374,29.5
			c2.762,5.336,6.143,1.426,9.482-2.017c3.387-3.493,6.007-7.738,7.542-12.358c2.633-7.924,2.046-16.867-1.6-24.379
			c-2.99-6.16-7.83-11.195-12.591-16.117c-6.292-6.506-16.745-9.53-25.788-9.356c-4.207,0.081-15.561,1.686-17.344,6.505
			C878.366,452.143,890.199,460.057,893.038,462.838z" data-index="65"></path>
	</g>
</g>
</svg>